<svg xmlns="http://www.w3.org/2000/svg" viewBox="0 0 2000 2000"><defs><style>.a{fill:#fdbc02;}.b{fill:#2c4f87;}.c{fill:#906300;}.d{fill:#916503;}.e{fill:#000010;}.f{fill:#f9fbfc;}.g{fill:#80a0bf;}.h{fill:#7794b7;}.i{fill:#254a87;}.j{fill:#526393;}.k{fill:#fafcfd;}.l{fill:#080a1d;}.m{fill:#dcb033;}.n{fill:#0202fe;}.o{fill:#0506fe;}.p{fill:#fff;}</style></defs><title>curly</title><path class="a" d="M2.83,1186.33v-750C42,377.41,76.47,314.55,121.46,260.45,196.42,170.3,278.13,85.75,357-1.17H1711.17L1598.6,138.69l-25.52-34-105,30.92q-3.94,5.48-8.2,10.72l-90.06-20.81c5.28,20,5.85,30.81,10.68,39.15,119.79,206.92,239.87,413.48,188.57,669-2.16,10.77,10.78,24.57,16.67,37q-54.12,313.32-108.25,626.66l-31-.35,11.73-148.37c1.81-250,21.69-501.84-2.18-749.42C1444,475,1352.38,358.54,1296.76,238.63l-1-.26L1251.47,154l1.56,3c-40.81-117.24-129.9-117-228.41-93.89C910.51-17.58,724.18,16.8,640,134.13c-8.16,6.33-16.42,12.6-24.67,18.87l8,11.89,28.8-16.18,308.34-56L940.2,127.39c-31.81,6.5-77.6,1.75-93.26,21.23C693.83,339.05,545.76,533.53,396.25,726.86L359.87,795,255.7,973.57q-22.71,34.62-45.44,69.24L50.61,1311.17C37.94,1278.06,20.39,1232.2,2.83,1186.33ZM242.76,887.16c18-108.35,31.39-188.93,44.78-269.51l-16.76-6.11L184,780.21Z" transform="translate(-2.83 1.17)"/><path class="b" d="M2.83,1186.33c17.56,45.87,35.11,91.73,47.78,124.84,49.7-83.54,104.68-176,159.65-268.37l44.49,21.5q23.87,72.46,47.66,144.89-3.32,38-6.54,76.11,31.72,128.25,63.43,256.5l-23.13,457H2.83Z" transform="translate(-2.83 1.17)"/><path class="c" d="M1440.33,1998.83H961.17l-59.31-260.72L773.67,1998.83H732l-44.41-71.23c10.87-48.7,19.7-88.29,28.53-127.87l-16.82-5.43c-20.26,22.3-40.51,44.59-62.06,68.33l-91.09-119.74-73.42,120.54c-11.74-100.76-22.24-191-32.74-281.15q10.77-22.56,21.55-45.13c172.17,173.07,382.92,161.69,598.9,125.25,45.24-10.49,90.84-19.65,135.65-31.73,129.31-34.83,256.52,41.67,268.11,162.27Q1452.26,1895.88,1440.33,1998.83Z" transform="translate(-2.83 1.17)"/><path class="d" d="M1585.75,870.58c-5.9-12.39-18.84-26.19-16.68-37,51.3-255.51-68.78-462.07-188.57-669-4.83-8.34-5.4-19.15-10.68-39.15l90.06,20.8,28.64,11.88,3-8.49-23.43-14.1,105-30.92,25.52,34L1711.17-1.17h104.16q9.89,61.23,19.76,122.46c-96.71-3.06-183.2,18.76-256.13,110.18,9.15,114.21,5.19,240.08,31.8,359.11,50.32,225.13,135.12,376.84,392.07,408.25v458.34l-137.52-23.58C1740.79,1394.25,1717.5,1293,1694,1180.33,1671.86,1074.17,1622.91,973.6,1585.75,870.58Z" transform="translate(-2.83 1.17)"/><path class="e" d="M2002.83,998.83c-256.95-31.41-341.75-183.12-392.07-408.25-26.61-119-22.65-244.9-31.8-359.11,72.93-91.42,159.42-113.24,256.15-110.17q41,2.61,82.05,5.19L1958.83,167l44,40.14v62.5l-104.32-21.06c-187.91,144.49-52.46,294.1-28.6,443.58l132.92,56.64Z" transform="translate(-2.83 1.17)"/><path class="f" d="M1865.35,1433.6l137.48,23.57v41.66c-117.22-.65-162.28,80.81-182.57,175.05-23,106.71-31.68,216.5-46.59,324.95H1440.33q11.94-102.94,23.87-205.9c31-119.18,55.47-245.33,185.41-299.67C1717.89,1464.7,1793.21,1452.94,1865.35,1433.6Z" transform="translate(-2.83 1.17)"/><path class="a" d="M440,1582.28c10.51,90.2,21,180.39,32.75,281.15l73.42-120.54,91.09,119.74c21.55-23.74,41.8-46,62.06-68.33l16.82,5.43c-8.83,39.58-17.66,79.17-28.53,127.87L732,1998.83H336.17q11.56-228.51,23.13-457Z" transform="translate(-2.83 1.17)"/><path class="g" d="M1773.67,1998.83c14.91-108.45,23.61-218.24,46.59-324.95,20.29-94.24,65.35-175.7,182.57-175.05v500Z" transform="translate(-2.83 1.17)"/><path class="h" d="M2002.83,748.83l-132.92-56.64c-23.86-149.48-159.31-299.09,28.6-443.58l104.32,21.06Z" transform="translate(-2.83 1.17)"/><path class="b" d="M357-1.17C278.13,85.75,196.42,170.3,121.46,260.45c-45,54.1-79.44,117-118.63,175.88V-1.17Z" transform="translate(-2.83 1.17)"/><path class="i" d="M773.67,1998.83l128.19-260.72,59.31,260.72Z" transform="translate(-2.83 1.17)"/><path class="h" d="M1917.16,126.49q-41-2.59-82.05-5.19-9.9-61.24-19.78-122.47h62.5q20.78,62.67,41.56,125.32Z" transform="translate(-2.83 1.17)"/><path class="i" d="M1919.5-1.17h83.33v125l-37.23-19.7Z" transform="translate(-2.83 1.17)"/><path class="h" d="M1919.5-1.17q23.05,52.65,46.07,105.32-3.39,31.46-6.74,62.88l-41.67-40.54,2.23-2.34Q1909,61.49,1898.67-1.17Z" transform="translate(-2.83 1.17)"/><path class="j" d="M1898.67-1.17Q1909,61.5,1919.39,124.15q-20.78-62.66-41.56-125.32Z" transform="translate(-2.83 1.17)"/><path class="c" d="M1958.83,167q3.36-31.42,6.74-62.88,18.66,9.82,37.26,19.68v83.34Z" transform="translate(-2.83 1.17)"/><path class="k" d="M1060.44,1662.4c-216,36.44-426.73,47.82-598.9-125.23L376.23,1374.4l.24-42.52,22.86-259.28L490,1157.08l172.15-127.39c-27.28-46.41-53.08-90.29-78.89-134.17,26.17-299.17,156.58-549.9,356.93-768.13L960.45,92.7l64.17-29.61C1123.13,40,1212.22,39.74,1253,157,1187.29,172.54,1121,186,1055.93,204.1,854.89,260,778.11,353.94,797.18,517.25q39.36,33.19,78.75,66.37c2.66,8.61,5.27,17.24,7.89,25.88l11.82-7.11L878,582.05c-6-154,39.47-217.08,165.9-230.31-124.48,166.09,46.78,243.69,99.79,363.71l211.9-182.55-56.85-85.34c-12.39-44.24-24.79-88.48-41.93-149.65l39.92-59.28C1352.38,358.54,1444,475,1456,599.1c23.87,247.58,4,499.37,2.18,749.44Zm108-287.27c89.79-37.45,180-89.67,185.69-202.66,4.65-91.53-44-168.73-114.54-211.63L898.43,1303.65ZM682.82,1046.44l-20.23,35.7,62,56.62,95.33-76.43L801.1,1036.9Z" transform="translate(-2.83 1.17)"/><path class="g" d="M1060.44,1662.4l397.74-313.86q-5.87,74.14-11.73,148.35-8.92,68.13-17.84,136.27l25.7,1.82,23.18-137.74q54.13-313.34,108.25-626.66c37.17,103,86.12,203.59,108.26,309.75,23.5,112.65,46.79,213.92,171.31,253.26-72.1,19.35-147.42,31.11-215.7,59.67-129.94,54.34-154.4,180.49-185.41,299.67-11.59-120.59-138.8-197.09-268.11-162.26C1151.28,1642.75,1105.68,1651.91,1060.44,1662.4Z" transform="translate(-2.83 1.17)"/><path class="g" d="M399.33,1072.6l-22.86,259.29-37.54-42-1.73-1.78q-17.37-39.42-34.73-78.86-23.87-72.45-47.72-144.92l59.62-7.75-58.67-83L359.87,795l82.44-9.32-46.06-58.78C545.76,533.53,693.83,339.05,846.94,148.62c15.66-19.48,61.45-14.73,93.26-21.23-200.35,218.23-330.76,469-356.92,768.14-121.9-97.75-176.8-85.3-228.31,52.4C369.64,989.15,384.49,1030.88,399.33,1072.6Z" transform="translate(-2.83 1.17)"/><path class="l" d="M797.18,517.25C778.11,353.94,854.89,260,1055.93,204.1,1121,186,1187.29,172.54,1253,157l-1.56-3c-21.55,27.88-43.11,55.75-69.45,89.81l113.76-5.44,1,.26c-16.38,24.34-32.77,48.68-39.91,59.28,17.14,61.17,29.54,105.41,42,149.68q-67.27-59.83-134.56-119.7c-125.08-68.2-208.73-46.22-326.41,87.72-2.07,36.71-4.29,76-6.69,118.6Z" transform="translate(-2.83 1.17)"/><path class="c" d="M1024.62,63.09,960.45,92.7l-308.34,56q-6-7.4-12.22-14.64C724.18,16.8,910.51-17.58,1024.62,63.09Z" transform="translate(-2.83 1.17)"/><path class="d" d="M242.76,887.16,184,780.21l86.78-168.67,16.76,6.11C274.15,698.23,260.76,778.81,242.76,887.16Z" transform="translate(-2.83 1.17)"/><path class="f" d="M1295.78,238.37,1182,243.81c26.34-34.06,47.9-61.93,69.45-89.81Z" transform="translate(-2.83 1.17)"/><path class="e" d="M255.7,973.57l58.67,83-59.62,7.75-44.49-21.5Q233,1008.2,255.7,973.57Z" transform="translate(-2.83 1.17)"/><path class="m" d="M1477.49,1497.24,1454.31,1635l-25.7-1.82q8.92-68.15,17.84-136.27Z" transform="translate(-2.83 1.17)"/><path class="e" d="M396.25,726.86l46.06,58.78L359.87,795Q378.07,760.91,396.25,726.86Z" transform="translate(-2.83 1.17)"/><path class="c" d="M652.11,148.71l-28.8,16.18-8-11.89c8.25-6.27,16.51-12.54,24.67-18.87C644,138.9,648.1,143.78,652.11,148.71Z" transform="translate(-2.83 1.17)"/><path class="l" d="M376.23,1374.4l85.31,162.77q-10.77,22.55-21.55,45.11l-80.69-40.47q-31.71-128.26-63.44-256.51l41.34,2.78,1.73,1.78Q357.58,1332.13,376.23,1374.4Z" transform="translate(-2.83 1.17)"/><path class="h" d="M337.2,1288.08l-41.34-2.78q3.27-38.07,6.55-76.11Q319.86,1248.67,337.2,1288.08Z" transform="translate(-2.83 1.17)"/><path class="a" d="M1468.08,135.57l23.43,14.1-3,8.49-28.64-11.88Q1464.14,141.06,1468.08,135.57Z" transform="translate(-2.83 1.17)"/><path class="l" d="M1168.45,1375.13l-270-71.48L1239.6,960.84c70.57,42.9,119.19,120.1,114.54,211.63C1348.4,1285.46,1258.24,1337.68,1168.45,1375.13Z" transform="translate(-2.83 1.17)"/><path class="n" d="M1164.24,327.89q67.27,59.87,134.56,119.7l56.83,85.31-211.9,182.55c-53-120-224.27-197.62-99.8-363.69Z" transform="translate(-2.83 1.17)"/><path class="o" d="M399.33,1072.6c-14.84-41.72-29.69-83.45-44.36-124.67,51.51-137.7,106.41-150.15,228.31-52.4,25.8,43.87,51.6,87.75,78.88,134.16L490,1157.08Z" transform="translate(-2.83 1.17)"/><path class="h" d="M1164.24,327.89l-120.31,23.87C917.51,365,872.05,428.08,878,582.05l-2.16,1.6-78.7-66.4,34,17c2.4-42.57,4.62-81.89,6.69-118.6C955.51,281.67,1039.16,259.69,1164.24,327.89Z" transform="translate(-2.83 1.17)"/><path class="g" d="M682.82,1046.44l118.28-9.54,18.84,25.43-95.33,76.43-62-56.62Z" transform="translate(-2.83 1.17)"/><path class="h" d="M376.23,1374.4q-18.66-42.27-37.3-84.54l37.54,42Q376.35,1353.13,376.23,1374.4Z" transform="translate(-2.83 1.17)"/><path class="h" d="M878,582.05l17.6,20.34-11.82,7.11c-2.62-8.64-5.23-17.27-7.89-25.88Z" transform="translate(-2.83 1.17)"/><rect class="p" x="1113.17" y="384.17" width="36" height="36"/><rect class="p" x="457.17" y="902.17" width="35" height="35"/></svg>